<svg width="249" height="103" viewBox="0 0 249 103" fill="none" xmlns="http://www.w3.org/2000/svg">
<path d="M23.1875 10.5H10.3125V92.625H23.1875V102.625H0.1875V0.375H23.1875V10.5Z" fill="black"/>
<path d="M117.312 95H101.812L77.9375 26L53.8125 95H38.1875L70.4375 3H85.3125L117.312 95ZM86.1875 65.75L89.8125 75.875H65.9375L69.4375 65.75H86.1875Z" fill="black"/>
<path d="M188.062 2.875H203.312V95H188.062L157.062 40.5V11.75L188.062 66.375V2.875ZM136.688 95V2.875H151.938V95H136.688Z" fill="black"/>
<path d="M225.438 10.5V0.375H248.438V102.625H225.438V92.625H238.312V10.5H225.438Z" fill="black"/>
</svg>
